<svg viewBox="0 0 300 800" xmlns="http://www.w3.org/2000/svg">
  <!-- Ship Hull with rounded triangular top -->
  <path d="
    M100,750
    L100,150
    Q150,50 200,150
    L200,750
    Q150,770 100,750
    Z" 
    fill="#2b2b2b" />

  <!-- Bridge (near top) -->
  <rect x="115" y="160" width="70" height="40" fill="#cccccc" rx="8" />

  <!-- Containers -->
  <g fill="#b2b2b2">
    <!-- Each row has 2 containers side by side -->
    <rect x="110" y="220" width="30" height="40" />
    <rect x="160" y="220" width="30" height="40" />

    <rect x="110" y="270" width="30" height="40" />
    <rect x="160" y="270" width="30" height="40" />

    <rect x="110" y="320" width="30" height="40" />
    <rect x="160" y="320" width="30" height="40" />

    <rect x="110" y="370" width="30" height="40" />
    <rect x="160" y="370" width="30" height="40" />

    <rect x="110" y="420" width="30" height="40" />
    <rect x="160" y="420" width="30" height="40" />

    <rect x="110" y="470" width="30" height="40" />
    <rect x="160" y="470" width="30" height="40" />

    <rect x="110" y="520" width="30" height="40" />
    <rect x="160" y="520" width="30" height="40" />

    <rect x="110" y="570" width="30" height="40" />
    <rect x="160" y="570" width="30" height="40" />

    <rect x="110" y="620" width="30" height="40" />
    <rect x="160" y="620" width="30" height="40" />
  </g>
</svg>
