<svg width="97" height="286" viewBox="0 0 97 286" fill="none" xmlns="http://www.w3.org/2000/svg">
<path d="M57.9087 4.59661C52.9358 -1.5322 44.0642 -1.5322 39.0913 4.59661C22.2742 25.3227 0 68.8418 0 134.215V253.638C0 271.511 14.4761 286 32.3333 286H64.6667C82.5239 286 97 271.511 97 253.638V134.215C97 68.8418 74.7258 25.3227 57.9087 4.59661Z" fill="url(#paint0_linear_19611_25164)"/>
<path d="M39.4795 4.91211C44.1778 -0.878247 52.483 -0.968926 57.2939 4.64062L57.5205 4.91211C74.2653 25.5492 96.5 68.9571 96.5 134.216V253.638C96.4999 271.235 82.2474 285.5 64.667 285.5H32.333C14.7526 285.5 0.500099 271.235 0.5 253.638V134.216L0.503906 132.689C0.841624 69.2937 22.1772 26.7434 38.6904 5.89551L39.4795 4.91211Z" stroke="white" stroke-opacity="0.25"/>
<defs>
<linearGradient id="paint0_linear_19611_25164" x1="68.0865" y1="-5.26206" x2="68.0865" y2="286" gradientUnits="userSpaceOnUse">
<stop stop-color="#669BC0"/>
<stop offset="1" stop-color="#27577F"/>
</linearGradient>
</defs>
</svg>
